<svg id="Layer_1" data-name="Layer 1" xmlns="http://www.w3.org/2000/svg" viewBox="0 0 122.29 115.29"><defs><style>.cls-1{fill:#0756a3;}</style></defs><title>calendarblue</title><path class="cls-1" d="M82.89,8.57H39.76v8.75H82.89V8.57Zm8.85,19.32a5.11,5.11,0,0,0,5.1-5.1V5.1a5.1,5.1,0,0,0-10.21,0V22.79A5.11,5.11,0,0,0,91.74,27.89Zm-60.83,0a5.11,5.11,0,0,0,5.1-5.1V5.1a5.1,5.1,0,0,0-10.21,0V22.79A5.11,5.11,0,0,0,30.91,27.89ZM105.21,8.57h-4.62v8.75h4.62a8.34,8.34,0,0,1,8.33,8.33V40.47H8.75V25.65a8.34,8.34,0,0,1,8.33-8.33h5V8.57h-5A17.1,17.1,0,0,0,0,25.65V98.21a17.1,17.1,0,0,0,17.08,17.08h88.14a17.1,17.1,0,0,0,17.08-17.08V25.65A17.1,17.1,0,0,0,105.21,8.57Zm-73.83,98H17.08a8.34,8.34,0,0,1-8.33-8.33V88.57H31.38v18Zm0-21.72H8.75V67.65H31.38V84.82Zm0-20.93H8.75V46.72H31.38V63.9Zm27.87,42.64H35.13v-18H59.25v18Zm0-21.72H35.13V67.65H59.25V84.82Zm0-20.93H35.13V46.72H59.25V63.9Zm27.86,42.64H63v-18H87.11v18Zm0-21.72H63V67.65H87.11V84.82Zm0-20.93H63V46.72H87.11V63.9Zm26.43,34.31a8.34,8.34,0,0,1-8.33,8.33H90.86v-0.43L113.54,88.7v9.51Zm0-13.39H90.86V67.65h22.68V84.82Zm0-20.93H90.86V46.72h22.68V63.9Z"/></svg>