<?xml version="1.0" encoding="utf-8"?>
<!-- Generator: Adobe Illustrator 19.2.1, SVG Export Plug-In . SVG Version: 6.00 Build 0)  -->
<svg version="1.1" id="Layer_1" xmlns="http://www.w3.org/2000/svg" xmlns:xlink="http://www.w3.org/1999/xlink" x="0px" y="0px"
	 viewBox="0 0 144 144" style="enable-background:new 0 0 144 144;" xml:space="preserve">
<style type="text/css">
	.st0{fill:#FFFFFF;}
</style>
<g>
	<path class="st0" d="M107.7,74.7h-4.5c-1.2,0-2.2-1-2.2-2.2c0-1.2,1-2.2,2.2-2.2h4.5c1.2,0,2.2,1,2.2,2.2
		C110,73.7,109,74.7,107.7,74.7L107.7,74.7z M94.3,74.7h-4.5c-1.2,0-2.2-1-2.2-2.2c0-1.2,1-2.2,2.2-2.2h4.5c1.2,0,2.2,1,2.2,2.2
		C96.6,73.7,95.6,74.7,94.3,74.7L94.3,74.7z M80.9,74.7h-4.5c-1.2,0-2.2-1-2.2-2.2c0-1.2,1-2.2,2.2-2.2h4.5c1.2,0,2.2,1,2.2,2.2
		C83.2,73.7,82.2,74.7,80.9,74.7L80.9,74.7z M67.5,74.7h-4.5c-1.2,0-2.2-1-2.2-2.2c0-1.2,1-2.2,2.2-2.2h4.5c1.2,0,2.2,1,2.2,2.2
		C69.8,73.7,68.8,74.7,67.5,74.7L67.5,74.7z M54.1,74.7h-4.5c-1.2,0-2.2-1-2.2-2.2c0-1.2,1-2.2,2.2-2.2h4.5c1.2,0,2.2,1,2.2,2.2
		C56.4,73.7,55.4,74.7,54.1,74.7L54.1,74.7z M40.7,74.7h-4.5c-1.2,0-2.2-1-2.2-2.2c0-1.2,1-2.2,2.2-2.2h4.5c1.2,0,2.2,1,2.2,2.2
		C43,73.7,42,74.7,40.7,74.7L40.7,74.7z M116.4,72.9c-0.9,0-1.7-0.5-2.1-1.4c-0.5-1.1,0-2.4,1.2-2.9c1.2-0.5,2.4-1.2,3.5-1.9
		c1-0.7,2.4-0.4,3.1,0.6c0.7,1,0.4,2.4-0.6,3.1c-1.4,0.9-2.8,1.7-4.3,2.4C117,72.9,116.7,72.9,116.4,72.9L116.4,72.9z M126.5,64.4
		c-0.4,0-0.8-0.1-1.2-0.4c-1-0.7-1.3-2-0.7-3.1c0.7-1.1,1.3-2.3,1.8-3.6c0.5-1.1,1.7-1.7,2.9-1.3c1.1,0.4,1.7,1.7,1.3,2.9
		c-0.6,1.5-1.4,3-2.2,4.4C128,64.1,127.3,64.4,126.5,64.4L126.5,64.4z M130.1,51.7c-1.2,0-2.2-1-2.2-2.2c0-1.3-0.2-2.7-0.5-4
		c-0.3-1.2,0.5-2.4,1.7-2.7c1.2-0.3,2.4,0.5,2.7,1.7c0.4,1.6,0.6,3.2,0.6,4.9C132.3,50.6,131.4,51.7,130.1,51.7L130.1,51.7z
		 M125.8,39.2c-0.7,0-1.4-0.3-1.8-0.9c-0.8-1.1-1.7-2.1-2.7-3c-0.9-0.8-1-2.2-0.1-3.2c0.8-0.9,2.2-1,3.2-0.1
		c1.2,1.1,2.3,2.3,3.3,3.7c0.7,1,0.5,2.4-0.5,3.1C126.7,39.1,126.2,39.2,125.8,39.2L125.8,39.2z M115.2,31.3c-0.3,0-0.5,0-0.8-0.1
		c-1.3-0.4-2.6-0.8-3.9-1c-1.2-0.2-2.1-1.3-1.9-2.5c0.2-1.2,1.3-2.1,2.5-1.9c1.6,0.2,3.2,0.6,4.8,1.2c1.2,0.4,1.8,1.7,1.4,2.9
		C117,30.8,116.1,31.3,115.2,31.3L115.2,31.3z M102,30h-4.5c-1.2,0-2.2-1-2.2-2.2c0-1.2,1-2.2,2.2-2.2h4.5c1.2,0,2.2,1,2.2,2.2
		C104.2,29,103.2,30,102,30L102,30z M88.6,30h-4.5c-1.2,0-2.2-1-2.2-2.2c0-1.2,1-2.2,2.2-2.2h4.5c1.2,0,2.2,1,2.2,2.2
		C90.8,29,89.8,30,88.6,30L88.6,30z M75.2,30h-4.5c-1.2,0-2.2-1-2.2-2.2c0-1.2,1-2.2,2.2-2.2h4.5c1.2,0,2.2,1,2.2,2.2
		C77.4,29,76.4,30,75.2,30L75.2,30z M61.7,30h-4.5c-1.2,0-2.2-1-2.2-2.2c0-1.2,1-2.2,2.2-2.2h4.5c1.2,0,2.2,1,2.2,2.2
		C64,29,63,30,61.7,30L61.7,30z M48.3,30h-4.5c-1.2,0-2.2-1-2.2-2.2c0-1.2,1-2.2,2.2-2.2h4.5c1.2,0,2.2,1,2.2,2.2
		C50.6,29,49.6,30,48.3,30L48.3,30z M48.3,30"/>
	<path class="st0" d="M107.7,119.4H36.3c-13.5,0-24.6-11-24.6-24.6c0-13.5,11-24.6,24.6-24.6c1.2,0,2.2,1,2.2,2.2
		c0,1.2-1,2.2-2.2,2.2c-11.1,0-20.1,9-20.1,20.1s9,20.1,20.1,20.1h71.5c1.2,0,2.2,1,2.2,2.2C110,118.4,109,119.4,107.7,119.4
		L107.7,119.4z M107.7,119.4"/>
	<path class="st0" d="M36.3,30c-0.6,0-1.1-0.2-1.6-0.7c-0.9-0.9-0.9-2.3,0-3.2L54.8,6.1c0.9-0.9,2.3-0.9,3.2,0
		c0.9,0.9,0.9,2.3,0,3.2L37.9,29.4C37.4,29.8,36.8,30,36.3,30L36.3,30z M36.3,30"/>
	<path class="st0" d="M56.4,50.1c-0.6,0-1.1-0.2-1.6-0.7L34.7,29.4c-0.9-0.9-0.9-2.3,0-3.2c0.9-0.9,2.3-0.9,3.2,0L58,46.3
		c0.9,0.9,0.9,2.3,0,3.2C57.5,49.9,56.9,50.1,56.4,50.1L56.4,50.1z M56.4,50.1"/>
	<path class="st0" d="M87.6,139.5c-0.6,0-1.1-0.2-1.6-0.7c-0.9-0.9-0.9-2.3,0-3.2l20.1-20.1c0.9-0.9,2.3-0.9,3.2,0
		c0.9,0.9,0.9,2.3,0,3.2l-20.1,20.1C88.8,139.2,88.2,139.5,87.6,139.5L87.6,139.5z M87.6,139.5"/>
	<path class="st0" d="M107.7,119.4c-0.6,0-1.1-0.2-1.6-0.7L86.1,98.6c-0.9-0.9-0.9-2.3,0-3.2c0.9-0.9,2.3-0.9,3.2,0l20.1,20.1
		c0.9,0.9,0.9,2.3,0,3.2C108.9,119.1,108.3,119.4,107.7,119.4L107.7,119.4z M107.7,119.4"/>
</g>
</svg>
