<?xml version="1.0" encoding="utf-8"?>
<!-- Generator: Adobe Illustrator 19.2.1, SVG Export Plug-In . SVG Version: 6.00 Build 0)  -->
<svg version="1.1" id="RAW_ICONS_-_SQUARE__x2F__ROUNDED__x2F__CIRCLE"
	 xmlns="http://www.w3.org/2000/svg" xmlns:xlink="http://www.w3.org/1999/xlink" x="0px" y="0px" viewBox="0 0 33.3 33.5"
	 style="enable-background:new 0 0 33.3 33.5;" xml:space="preserve">
<metadata><?xpacket begin="﻿" id="W5M0MpCehiHzreSzNTczkc9d"?>
<x:xmpmeta xmlns:x="adobe:ns:meta/" x:xmptk="Adobe XMP Core 5.6-c111 79.158366, 2015/09/25-01:12:00        ">
   <rdf:RDF xmlns:rdf="http://www.w3.org/1999/02/22-rdf-syntax-ns#">
      <rdf:Description rdf:about=""/>
   </rdf:RDF>
</x:xmpmeta>
                                                                                                    
                                                                                                    
                                                                                                    
                                                                                                    
                                                                                                    
                                                                                                    
                                                                                                    
                                                                                                    
                                                                                                    
                                                                                                    
                                                                                                    
                                                                                                    
                                                                                                    
                                                                                                    
                                                                                                    
                                                                                                    
                                                                                                    
                                                                                                    
                                                                                                    
                                                                                                    
                           
<?xpacket end="w"?></metadata>
<style type="text/css">
	.st0{fill:#FFFFFF;}
</style>
<path class="st0" d="M16.6,0.5c-9,0-16.4,7.3-16.4,16.4c0,9.1,7.3,16.4,16.4,16.4S33,25.9,33,16.9C33,7.8,25.7,0.5,16.6,0.5z
	 M18.3,20.5c-1,0-2-0.5-2.3-1.2c0,0-0.5,2.2-0.7,2.6c-0.4,1.5-1.6,3-1.7,3.1c-0.1,0.1-0.2,0.1-0.2-0.1c0-0.2-0.3-2.1,0-3.6
	c0.2-0.8,1.2-5.1,1.2-5.1s-0.3-0.6-0.3-1.5c0-1.4,0.8-2.4,1.8-2.4c0.9,0,1.3,0.6,1.3,1.4c0,0.9-0.5,2.1-0.8,3.3
	c-0.2,1,0.5,1.8,1.5,1.8c1.8,0,3-2.3,3-5c0-2.1-1.4-3.6-3.9-3.6c-2.9,0-4.6,2.1-4.6,4.5c0,0.8,0.2,1.4,0.6,1.8
	c0.2,0.2,0.2,0.3,0.1,0.5c0,0.2-0.1,0.6-0.2,0.8c-0.1,0.2-0.3,0.3-0.5,0.2c-1.3-0.5-1.9-2-1.9-3.6c0-2.7,2.3-5.9,6.7-5.9
	c3.6,0,6,2.6,6,5.4C23.4,17.8,21.3,20.5,18.3,20.5z"/>
</svg>
