<?xml version="1.0" encoding="utf-8"?>
<!-- Generator: Adobe Illustrator 19.2.1, SVG Export Plug-In . SVG Version: 6.00 Build 0)  -->
<svg version="1.1" id="Layer_1" xmlns="http://www.w3.org/2000/svg" xmlns:xlink="http://www.w3.org/1999/xlink" x="0px" y="0px"
	 viewBox="0 0 144 144" style="enable-background:new 0 0 144 144;" xml:space="preserve">
<style type="text/css">
	.st0{fill:#FFFFFF;}
</style>
<g>
	<path class="st0" d="M116.2,18h-16.1v-6.3c0-2.4-1.9-4.3-4.3-4.3c-2.3,0-4.3,1.9-4.3,4.3V18H76.3v-6.3c0-2.4-1.9-4.3-4.3-4.3
		c-2.3,0-4.3,1.9-4.3,4.3V18H52.4v-6.3c0-2.4-1.9-4.3-4.3-4.3c-2.3,0-4.3,1.9-4.3,4.3V18H27.8c-2.4,0-4.3,1.9-4.3,4.3v110.6
		c0,2.4,1.9,4.3,4.3,4.3h88.3c2.3,0,4.3-1.9,4.3-4.3V22.2C120.4,19.9,118.5,18,116.2,18L116.2,18z M111.9,128.6H32.1V26.5h11.8v5
		c0,2.4,1.9,4.3,4.3,4.3c2.4,0,4.3-1.9,4.3-4.3v-5h15.3v5c0,2.4,1.9,4.3,4.3,4.3c2.4,0,4.3-1.9,4.3-4.3v-5h15.3v5
		c0,2.4,1.9,4.3,4.3,4.3c2.4,0,4.3-1.9,4.3-4.3v-5h11.8V128.6z M111.9,128.6"/>
	<path class="st0" d="M97.2,55H46.8c-2.4,0-4.3,1.9-4.3,4.3c0,2.4,1.9,4.3,4.3,4.3h50.4c2.3,0,4.3-1.9,4.3-4.3
		C101.5,57,99.5,55,97.2,55L97.2,55z M97.2,55"/>
	<path class="st0" d="M97.2,78.9H46.8c-2.4,0-4.3,1.9-4.3,4.3c0,2.4,1.9,4.3,4.3,4.3h50.4c2.3,0,4.3-1.9,4.3-4.3
		C101.5,80.8,99.5,78.9,97.2,78.9L97.2,78.9z M97.2,78.9"/>
	<path class="st0" d="M97.2,102.7H46.8c-2.4,0-4.3,1.9-4.3,4.3c0,2.4,1.9,4.3,4.3,4.3h50.4c2.3,0,4.3-1.9,4.3-4.3
		C101.5,104.6,99.5,102.7,97.2,102.7L97.2,102.7z M97.2,102.7"/>
</g>
</svg>
