<svg id="Layer_1" data-name="Layer 1" xmlns="http://www.w3.org/2000/svg" viewBox="0 0 138.15 97.23"><defs><style>.cls-1{fill:#ffc709;}</style></defs><title>icon-video</title><path class="cls-1" d="M135.67,36.34c-5-5.93-14.19-8.35-31.78-8.35H40.07c-18,0-27.35,2.57-32.32,8.88C2.91,43,2.91,52.1,2.91,64.65V88.57c0,24.31,5.75,36.65,37.16,36.65H103.9c15.25,0,23.7-2.13,29.17-7.36s8-14.13,8-29.29V64.65c0-13.23-.37-22.35-5.39-28.31h0ZM91.6,79.91l-29,15.15a4.46,4.46,0,0,1-6.52-3.95V60.91a4.46,4.46,0,0,1,6.51-4l29,15a4.46,4.46,0,0,1,0,7.91h0Zm0,0" transform="translate(-2.91 -28)"/></svg>