<?xml version="1.0" encoding="utf-8"?>
<!-- Generator: Adobe Illustrator 19.2.1, SVG Export Plug-In . SVG Version: 6.00 Build 0)  -->
<svg version="1.1" id="Õ_xBA__x2264__x201E__x5F_1"
	 xmlns="http://www.w3.org/2000/svg" xmlns:xlink="http://www.w3.org/1999/xlink" x="0px" y="0px" viewBox="0 0 79 75"
	 style="enable-background:new 0 0 79 75;" xml:space="preserve">
<metadata><?xpacket begin="﻿" id="W5M0MpCehiHzreSzNTczkc9d"?>
<x:xmpmeta xmlns:x="adobe:ns:meta/" x:xmptk="Adobe XMP Core 5.6-c111 79.158366, 2015/09/25-01:12:00        ">
   <rdf:RDF xmlns:rdf="http://www.w3.org/1999/02/22-rdf-syntax-ns#">
      <rdf:Description rdf:about=""/>
   </rdf:RDF>
</x:xmpmeta>
                                                                                                    
                                                                                                    
                                                                                                    
                                                                                                    
                                                                                                    
                                                                                                    
                                                                                                    
                                                                                                    
                                                                                                    
                                                                                                    
                                                                                                    
                                                                                                    
                                                                                                    
                                                                                                    
                                                                                                    
                                                                                                    
                                                                                                    
                                                                                                    
                                                                                                    
                                                                                                    
                           
<?xpacket end="w"?></metadata>
<style type="text/css">
	.st0{fill:#FFFFFF;}
</style>
<g>
	<path class="st0" d="M57.3,66.9c0,0.3-0.3,0.6-0.6,0.6H8.7c-0.3,0-0.6-0.3-0.6-0.6v-45c0-0.2,0.1-0.3,0.2-0.4L23.9,7.6
		c0.1-0.1,0.3-0.2,0.4-0.2h15.6V3.2H24.3c-1.2,0-2.3,0.4-3.2,1.2L5.5,18.3c-1,0.9-1.6,2.2-1.6,3.6v45c0,2.6,2.1,4.8,4.8,4.8h48.1
		c2.6,0,4.8-2.1,4.8-4.8V49.1h-4.2V66.9z"/>
	<path class="st0" d="M23.4,22.3H11.4v4.2h14.1c1.2,0,2.1-0.9,2.1-2.1V10.7h-4.2V22.3z"/>
	<path class="st0" d="M72.2,13c0,0-1.9-1.9-1.9-1.9c-2.2-2.2-5.2-3.5-8.2-3.5c-2.4,0-4.8,0.8-7,2.2c-1.5-1.3-3-1.6-3.5-1.7
		C48,7.5,45.3,9.7,43,11.9c-4.1,4.2-10.5,10.8-11.5,11.8l-0.1,0.1l3,2.9l0.1-0.1c1-1,7.4-7.6,11.5-11.8c2.1-2.2,3.5-2.9,4.9-2.7
		c0,0,0.1,0,0.1,0c0,0,0.4,0.1,0.8,0.3l-21.6,22c0,0,0,0,0,0c0,0,0,0.1-0.1,0.1C30.1,34.8,30,34.9,30,35c0,0,0,0.1-0.1,0.1
		c-0.1,0.1-0.1,0.3-0.1,0.4c0,0,0,0,0,0.1l-4.3,19.7c-0.2,0.7,0.1,1.4,0.6,1.9c0.4,0.4,0.9,0.6,1.5,0.6c0.1,0,0.3,0,0.4,0l19.9-4.3
		c0,0,0,0,0,0c0.1,0,0.3-0.1,0.4-0.2c0,0,0.1,0,0.1-0.1c0.1-0.1,0.2-0.1,0.3-0.2c0,0,0.1,0,0.1-0.1c0,0,0,0,0,0l22.3-22.7
		C76.6,24.6,77,17.7,72.2,13z M30.2,52.9L33,40.1l10.1,10L30.2,52.9z M47.3,48.4L34.7,36l2.8-2.9L50,45.6L47.3,48.4z M68.1,27.2
		L53,42.6L40.5,30.1l15.1-15.3c2-2,4.3-3,6.6-3c2,0,3.8,0.8,5.3,2.3c0.1,0.1,1.8,1.8,1.9,1.9C73,19.6,71.1,24.1,68.1,27.2z"/>
</g>
</svg>
