<?xml version="1.0" encoding="utf-8"?>
<!-- Generator: Adobe Illustrator 19.2.1, SVG Export Plug-In . SVG Version: 6.00 Build 0)  -->
<svg version="1.1" id="Layer_1" xmlns="http://www.w3.org/2000/svg" xmlns:xlink="http://www.w3.org/1999/xlink" x="0px" y="0px"
	 viewBox="0 0 73.5 74.5" style="enable-background:new 0 0 73.5 74.5;" xml:space="preserve">
<metadata><?xpacket begin="﻿" id="W5M0MpCehiHzreSzNTczkc9d"?>
<x:xmpmeta xmlns:x="adobe:ns:meta/" x:xmptk="Adobe XMP Core 5.6-c111 79.158366, 2015/09/25-01:12:00        ">
   <rdf:RDF xmlns:rdf="http://www.w3.org/1999/02/22-rdf-syntax-ns#">
      <rdf:Description rdf:about=""/>
   </rdf:RDF>
</x:xmpmeta>
                                                                                                    
                                                                                                    
                                                                                                    
                                                                                                    
                                                                                                    
                                                                                                    
                                                                                                    
                                                                                                    
                                                                                                    
                                                                                                    
                                                                                                    
                                                                                                    
                                                                                                    
                                                                                                    
                                                                                                    
                                                                                                    
                                                                                                    
                                                                                                    
                                                                                                    
                                                                                                    
                           
<?xpacket end="w"?></metadata>
<style type="text/css">
	.st0{fill:#0756A3;}
</style>
<g>
	<path class="st0" d="M27.9,46.4l-16-6.4v5.4l16,6.4V46.4z M27.9,29.8l-16-6.4v5.4l16,6.4V29.8z M70.9,2c-1.1-0.7-2.5-0.9-3.7-0.4
		L36.6,13.8L6.1,1.6C4.9,1.1,3.5,1.2,2.4,2C1.3,2.7,0.6,4,0.6,5.3v51.2c0,1.6,1,3.1,2.5,3.7L35.1,73c0,0,0.7,0.2,0.8,0.2
		c0.3,0.1,0.5,0.1,0.8,0.1c0.3,0,0.5,0,0.8-0.1c0.1,0,0.8-0.2,0.8-0.2l31.9-12.8c1.5-0.6,2.5-2.1,2.5-3.7V5.3C72.6,4,72,2.7,70.9,2
		L70.9,2z M32.6,65.1L7,54.9V10l25.6,10.2V65.1z M66.2,54.9L40.6,65.1V20.3L66.2,10V54.9z M61.4,40l-16,6.4v5.4l16-6.4V40z
		 M61.4,23.4l-16,6.4v5.4l16-6.4V23.4z M61.4,23.4"/>
</g>
</svg>
