<?xml version="1.0" encoding="utf-8"?>
<!-- Generator: Adobe Illustrator 19.2.1, SVG Export Plug-In . SVG Version: 6.00 Build 0)  -->
<svg version="1.1" id="Layer_1" xmlns="http://www.w3.org/2000/svg" xmlns:xlink="http://www.w3.org/1999/xlink" x="0px" y="0px"
	 viewBox="0 0 53.8 36" style="enable-background:new 0 0 53.8 36;" xml:space="preserve">
<metadata><?xpacket begin="﻿" id="W5M0MpCehiHzreSzNTczkc9d"?>
<x:xmpmeta xmlns:x="adobe:ns:meta/" x:xmptk="Adobe XMP Core 5.6-c111 79.158366, 2015/09/25-01:12:00        ">
   <rdf:RDF xmlns:rdf="http://www.w3.org/1999/02/22-rdf-syntax-ns#">
      <rdf:Description rdf:about=""/>
   </rdf:RDF>
</x:xmpmeta>
                                                                                                    
                                                                                                    
                                                                                                    
                                                                                                    
                                                                                                    
                                                                                                    
                                                                                                    
                                                                                                    
                                                                                                    
                                                                                                    
                                                                                                    
                                                                                                    
                                                                                                    
                                                                                                    
                                                                                                    
                                                                                                    
                                                                                                    
                                                                                                    
                                                                                                    
                                                                                                    
                           
<?xpacket end="w"?></metadata>
<style type="text/css">
	.st0{fill:#FFFFFF;}
</style>
<path class="st0" d="M44,21.6c-1.5,0.2-3-0.5-3.4-2c-0.4-1.5,0.6-3,1.8-3.3l3-0.7l1-3.4l-4.4,1c-2.6,0.6-4.4,2.9-4.5,5.4
	c0,0.1,0,0.2,0,0.3c0.2,3-1.5,4.6-3,4.8c-1.5,0.2-2.9-0.6-3.3-2c-0.4-1.5,0.6-3,1.8-3.3l3-0.7l1-3.4l-4.4,1
	c-2.6,0.6-4.4,2.9-4.5,5.4c0,0.1,0,0.2,0,0.3c0.2,3-1.5,4.6-3,4.8c-1.5,0.2-2.9-0.6-3.3-2c-0.4-1.5,0.6-3,1.8-3.3l3-0.7l1-3.4
	L18,18.9l0.6-2.3l6-1.5c3.1-0.8,5.2-3.7,4.3-6.8c-0.8-3.1-4-5-7-4.3c-1.9,0.4-3.5,1.9-3.9,3.4L16.2,14l-7.9,1.8l-0.9,3.3l8.1-1.9
	l-0.7,2.3L8.7,21c-2.5,0.6-3.8,2.2-4.3,4v2.8c0.7,2.8,3.2,5.2,7,4.4c1.9-0.4,3.5-1.9,3.9-3.4l1.7-6.6l1.7-0.4
	c-0.3,0.8-0.2,1.8,0,2.8c0.8,3.1,4,5,7,4.3c1.9-0.4,3.4-1.7,4.1-3.6l-0.1-0.2c1.4,1.4,3.4,2,5.4,1.6c1.9-0.4,3.4-1.7,4.1-3.6
	l-0.1-0.2c1.4,1.4,3.4,2,5.4,1.6c2-0.5,3.6-1.8,4.3-4.4v-1.7l-2.8,0.7C46.1,20.7,45.1,21.4,44,21.6z M20.8,8.5
	c0.2-0.7,1-1.4,1.9-1.6c1.5-0.3,2.9,0.6,3.3,2s-0.6,3-1.8,3.3l-4.7,1.1L20.8,8.5z M12.6,27.8c-0.2,0.7-1,1.4-1.9,1.6
	c-1.5,0.3-2.9-0.6-3.3-2c-0.4-1.5,0.5-3,1.8-3.3l4.8-1.1L12.6,27.8z"/>
</svg>
