<svg id="Layer_1" data-name="Layer 1" xmlns="http://www.w3.org/2000/svg" viewBox="0 0 126.16 114.92"><defs><style>.cls-1{fill:#fff;}</style></defs><title>icon-undecidedstudent</title><path class="cls-1" d="M106.74,47.46c0,3.82-2.78,6.15-4.81,7.85-0.77.65-2.2,1.82-2.2,2.27a3.08,3.08,0,0,1-3.1,3.11h0a3.09,3.09,0,0,1-3.13-3.06c0-3.39,2.44-5.42,4.43-7.08,1.56-1.31,2.58-2.23,2.58-3.07a3.1,3.1,0,0,0-6.19,0,3.13,3.13,0,0,1-6.26,0,9.35,9.35,0,0,1,18.7,0h0ZM96.69,63.57a3.07,3.07,0,0,0-3.06,3.13v0a3.06,3.06,0,0,0,3.06,3.12,3.13,3.13,0,0,0,0-6.27h0Zm-63,21.79a3.13,3.13,0,0,0,0,6.26H33.9a3.13,3.13,0,1,0,0-6.26H33.64Zm10.87,0a3.13,3.13,0,1,0,0,6.26h0.26a3.13,3.13,0,1,0,0-6.26H44.51Zm91.87-50V70.61a15,15,0,0,1-15,15.1H80.79l-2,0c-0.57,0-1.22,0-1.47,0s-0.9.76-1.52,1.33L75,87.78,63.51,98.25a3.2,3.2,0,0,1-5.33-2.31V62.77H25.41a9,9,0,0,0-8.94,8.89v35.21a8.83,8.83,0,0,0,8.94,8.73H70.72a3.14,3.14,0,0,1,2.09.88l9.35,8.62V95.38a3.13,3.13,0,1,1,6.26,0V132.2A3.08,3.08,0,0,1,86.57,135a3,3,0,0,1-1.24.25,3.16,3.16,0,0,1-2.11-.85L69.51,121.86H25.41a15.09,15.09,0,0,1-15.2-15V71.66a15.23,15.23,0,0,1,15.2-15.15H58.18V35.4a15.17,15.17,0,0,1,15.25-15h47.93a15,15,0,0,1,15,15h0Zm-6.26,0a8.72,8.72,0,0,0-8.76-8.78H73.43a8.91,8.91,0,0,0-9,8.78V88.85l6.29-5.68c0.29-.27.62-0.51,0.86-0.73,2.87-2.65,3.61-3.07,7.35-3h42.43a8.77,8.77,0,0,0,8.76-8.84V35.4Zm0,0" transform="translate(-10.21 -20.37)"/></svg>